# xmcd
#
# Track frame offsets:
#	150
#	17417
#	31169
#	51699
#	65096
#	85331
#	103211
#	120183
#	135320
#	153287
#	166474
#	180668
#	197388
#	210167
#	226522
#	243176
#	258908
#	271193
#	286812
#	299594
#
# Disc length: 4228
#
# Revision: 1
# Processed by: cddbd v1.5.1PL0 Copyright (c) Steve Scherf et al.
# Submitted via: EZCDDA 4.3.3.2
# Normalized: r0:TDELIM( - )
#
DISCID=07108214
DTITLE=Various Artist - Country Collection V-10
DYEAR=1900
DGENRE=
TTITLE0=Dwight Yoakam - I Sang Dixie
TTITLE1=Dwight Yoakam - Send Me The Pillow
TTITLE2=Dwight Yoakam - Buenas Noches
TTITLE3=Dwight Yoakam - Pocket Of A Clown
TTITLE4=Dwight Yoakam - A Thousand Miles
TTITLE5=Dwight Yoakam - This Time
TTITLE6=Dwight Yoakam - Two Doors Down
TTITLE7=Dwight Yoakam - Ain't That Lonely Yet
TTITLE8=Dwight Yoakam - King Of Fools
TTITLE9=Dwight Yoakam - Try Not To Look So Pretty
TTITLE10=Exile - Woke Up In Love
TTITLE11=Exile - I Don't Want A Memory
TTITLE12=Exile - Give Me One More Chance
TTITLE13=Exile - She's A Miricle
TTITLE14=Exile - Hang On To Your Heart
TTITLE15=Exile - The Girl Can't Help It
TTITLE16=Exile - I Could Get Used To You
TTITLE17=Exile - Crazy For Your Love
TTITLE18=John M. Montgomery - Aint' Got Nothin' On Us
TTITLE19=John M. Montgomery - Friends
EXTD=
EXTT0=
EXTT1=
EXTT2=
EXTT3=
EXTT4=
EXTT5=
EXTT6=
EXTT7=
EXTT8=
EXTT9=
EXTT10=
EXTT11=
EXTT12=
EXTT13=
EXTT14=
EXTT15=
EXTT16=
EXTT17=
EXTT18=
EXTT19=
PLAYORDER=
